<svg width="73" height="30" viewBox="0 0 73 30" fill="none" xmlns="http://www.w3.org/2000/svg">
<path d="M0.26 29V0.999998H6.86V12.06H15.16V0.999998H21.76V29H15.16V16.82H6.86V29H0.26ZM35.9556 29.44C34.7423 29.44 33.5556 29.2733 32.3956 28.94C31.2356 28.6067 30.149 28.0867 29.1356 27.38C28.1356 26.66 27.249 25.74 26.4756 24.62C25.7023 23.4867 25.0956 22.1333 24.6556 20.56C24.229 18.9733 24.0156 17.1467 24.0156 15.08C24.0156 13.0267 24.229 11.2133 24.6556 9.64C25.0956 8.05333 25.7023 6.7 26.4756 5.58C27.249 4.46 28.1356 3.54666 29.1356 2.84C30.149 2.12 31.2356 1.59333 32.3956 1.26C33.5556 0.926665 34.7423 0.759999 35.9556 0.759999C37.1423 0.759999 38.309 0.926665 39.4556 1.26C40.6156 1.59333 41.7023 2.12 42.7156 2.84C43.729 3.54666 44.6156 4.46 45.3756 5.58C46.149 6.7 46.749 8.05333 47.1756 9.64C47.6156 11.2133 47.8356 13.0267 47.8356 15.08C47.8356 17.1467 47.6156 18.9733 47.1756 20.56C46.749 22.1333 46.149 23.4867 45.3756 24.62C44.6156 25.74 43.729 26.66 42.7156 27.38C41.7023 28.0867 40.6156 28.6067 39.4556 28.94C38.309 29.2733 37.1423 29.44 35.9556 29.44ZM35.9556 24.56C36.6356 24.56 37.289 24.3867 37.9156 24.04C38.5423 23.68 39.0956 23.1267 39.5756 22.38C40.069 21.62 40.4556 20.64 40.7356 19.44C41.0156 18.2267 41.1556 16.7733 41.1556 15.08C41.1556 13.4 41.0156 11.96 40.7356 10.76C40.4556 9.56 40.069 8.58666 39.5756 7.84C39.0956 7.08 38.5423 6.52667 37.9156 6.18C37.289 5.82 36.6356 5.64 35.9556 5.64C35.2623 5.64 34.5956 5.82 33.9556 6.18C33.329 6.52667 32.769 7.08 32.2756 7.84C31.7956 8.58666 31.409 9.56 31.1156 10.76C30.8356 11.96 30.6956 13.4 30.6956 15.08C30.6956 16.7733 30.8356 18.2267 31.1156 19.44C31.409 20.64 31.7956 21.62 32.2756 22.38C32.769 23.1267 33.329 23.68 33.9556 24.04C34.5956 24.3867 35.2623 24.56 35.9556 24.56ZM60.8913 29.44C59.0512 29.44 57.3513 29.16 55.7913 28.6C54.2446 28.04 52.9313 27.2533 51.8513 26.24C50.7846 25.2267 50.0713 24.0467 49.7113 22.7L55.9913 20.08C56.2046 20.8133 56.5513 21.5133 57.0313 22.18C57.5113 22.8333 58.1179 23.38 58.8513 23.82C59.5846 24.2467 60.4246 24.46 61.3713 24.46C62.1979 24.46 62.8913 24.3533 63.4513 24.14C64.0246 23.9133 64.4579 23.58 64.7513 23.14C65.0579 22.7 65.2113 22.1533 65.2113 21.5C65.2113 21.02 65.0579 20.58 64.7513 20.18C64.4446 19.78 64.0179 19.4133 63.4713 19.08C62.9379 18.7333 62.3113 18.42 61.5913 18.14C60.8846 17.8467 60.1179 17.5667 59.2913 17.3C58.0646 16.9133 56.9179 16.48 55.8513 16C54.7846 15.52 53.8446 14.9467 53.0312 14.28C52.2313 13.6 51.6046 12.7933 51.1513 11.86C50.6979 10.9133 50.4713 9.79333 50.4713 8.5C50.4713 7.42 50.6713 6.46667 51.0713 5.64C51.4846 4.8 52.0446 4.07333 52.7513 3.46C53.4713 2.84667 54.2913 2.34 55.2113 1.94C56.1313 1.54 57.1046 1.24667 58.1312 1.06C59.1579 0.859999 60.1913 0.759999 61.2313 0.759999C62.9779 0.759999 64.5779 1.02 66.0313 1.54C67.4846 2.06 68.6979 2.76 69.6713 3.64C70.6579 4.52 71.3179 5.51333 71.6513 6.62L65.4513 9.28C65.2379 8.58666 64.9246 7.97333 64.5113 7.44C64.0979 6.90667 63.5913 6.49333 62.9913 6.2C62.4046 5.89333 61.7313 5.74 60.9713 5.74C60.4646 5.74 59.9913 5.79333 59.5513 5.9C59.1246 6.00667 58.7446 6.16667 58.4113 6.38C58.0779 6.59333 57.8179 6.86 57.6313 7.18C57.4579 7.5 57.3713 7.87333 57.3713 8.3C57.3713 8.87333 57.5513 9.38667 57.9113 9.84C58.2846 10.28 58.8246 10.68 59.5313 11.04C60.2379 11.3867 61.0846 11.72 62.0713 12.04C62.9246 12.3067 63.8113 12.6133 64.7313 12.96C65.6646 13.3067 66.5646 13.7133 67.4313 14.18C68.3113 14.6467 69.0979 15.2 69.7913 15.84C70.4979 16.48 71.0579 17.2267 71.4713 18.08C71.8846 18.92 72.0913 19.9 72.0913 21.02C72.0913 22.2733 71.8779 23.3733 71.4513 24.32C71.0246 25.2533 70.4379 26.0467 69.6913 26.7C68.9579 27.34 68.1113 27.8667 67.1513 28.28C66.1913 28.68 65.1713 28.9733 64.0913 29.16C63.0246 29.3467 61.9579 29.44 60.8913 29.44Z" fill="white"/>
</svg>
