<svg width="64" height="64" viewBox="0 0 64 64" fill="none" xmlns="http://www.w3.org/2000/svg">
<circle cx="32" cy="32" r="32" fill="#61E4FA"/>
<path fill-rule="evenodd" clip-rule="evenodd" d="M16 31.191C16 23.5706 23.5493 18 32 18C40.3987 18 48 23.5298 48 31.191C48 39.1687 39.024 46.619 26.7093 43.6571C24.4733 45.0122 19.5413 46.3805 16.072 47C17.3653 44.4796 18.8027 41.0181 18.7293 38.6058C16.9853 36.5468 16 33.8933 16 31.191ZM23.3333 31.1818C23.3333 32.2746 24.228 33.1591 25.3333 33.1591C26.4387 33.1591 27.3333 32.2746 27.3333 31.1818C27.3333 30.089 26.4387 29.2045 25.3333 29.2045C24.228 29.2045 23.3333 30.089 23.3333 31.1818ZM32 33.1591C30.8947 33.1591 30 32.2746 30 31.1818C30 30.089 30.8947 29.2045 32 29.2045C33.1053 29.2045 34 30.089 34 31.1818C34 32.2746 33.1053 33.1591 32 33.1591ZM36.6667 31.1818C36.6667 32.2746 37.5627 33.1591 38.6667 33.1591C39.772 33.1591 40.6667 32.2746 40.6667 31.1818C40.6667 30.089 39.772 29.2045 38.6667 29.2045C37.5627 29.2045 36.6667 30.089 36.6667 31.1818Z" fill="white"/>
</svg>
