<svg width="32" height="32" viewBox="0 0 32 32" fill="none" xmlns="http://www.w3.org/2000/svg">
<path fill-rule="evenodd" clip-rule="evenodd" d="M32 4C32 6.20914 24.8366 8 16 8C7.16344 8 0 6.20914 0 4C0 1.79086 7.16344 0 16 0C24.8366 0 32 1.79086 32 4ZM0 7C0 9.1541 7.164 10.9 16 10.9C24.836 10.9 32 9.1541 32 7V16.1C32 18.2541 24.836 20 16 20C7.164 20 0 18.2541 0 16.1V7ZM2.66667 14.15C2.66667 15.2264 3.56267 16.1 4.66667 16.1C5.77067 16.1 6.66667 15.2264 6.66667 14.15C6.66667 13.0736 5.77067 12.2 4.66667 12.2C3.56267 12.2 2.66667 13.0736 2.66667 14.15ZM16 22.9C7.164 22.9 0 21.1541 0 19V28.1C0 30.2541 7.164 32 16 32C24.836 32 32 30.2541 32 28.1V19C32 21.1541 24.836 22.9 16 22.9ZM4.66667 28.1C3.56267 28.1 2.66667 27.2264 2.66667 26.15C2.66667 25.0736 3.56267 24.2 4.66667 24.2C5.77067 24.2 6.66667 25.0736 6.66667 26.15C6.66667 27.2264 5.77067 28.1 4.66667 28.1Z" fill="white"/>
</svg>
