<svg width="48" height="40" viewBox="0 0 48 40" fill="none" xmlns="http://www.w3.org/2000/svg">
<path fill-rule="evenodd" clip-rule="evenodd" d="M40.4155 10.2243H2.63307V33.1215H31.3718C31.164 33.464 31.0219 33.8443 30.9542 34.248L30.695 35.7771H1.31653C0.589412 35.7771 0 35.1826 0 34.4493V1.32783C0 0.594468 0.589412 0 1.31653 0H41.732C42.4588 0 43.0485 0.594468 43.0485 1.32783V22.1078C42.3797 22.2055 41.7623 22.516 41.2761 23.0067L40.4155 23.8746V10.2243ZM13.7567 17.2578C13.7567 18.5961 12.681 19.6811 11.354 19.6811C10.0271 19.6811 8.95137 18.5961 8.95137 17.2578C8.95137 15.9194 10.0271 14.8345 11.354 14.8345C12.681 14.8345 13.7567 15.9194 13.7567 17.2578ZM34.0971 15.266H17.9038C16.8133 15.266 15.929 16.1578 15.929 17.2578C15.929 18.3577 16.8133 19.2495 17.9038 19.2495H34.0971C35.1879 19.2495 36.0719 18.3577 36.0719 17.2578C36.0719 16.1578 35.1879 15.266 34.0971 15.266ZM11.354 27.648C12.681 27.648 13.7567 26.5631 13.7567 25.2247C13.7567 23.8864 12.681 22.8015 11.354 22.8015C10.0271 22.8015 8.95137 23.8864 8.95137 25.2247C8.95137 26.5631 10.0271 27.648 11.354 27.648ZM34.0971 23.233H17.9038C16.8133 23.233 15.929 24.1248 15.929 25.2247C15.929 26.3247 16.8133 27.2165 17.9038 27.2165H34.0971C35.1879 27.2165 36.0719 26.3247 36.0719 25.2247C36.0719 24.1248 35.1879 23.233 34.0971 23.233Z" fill="#1D46F6"/>
<path fill-rule="evenodd" clip-rule="evenodd" d="M44.3407 24.4147L47.6547 27.757C47.8773 27.9814 48 28.28 48 28.5976C48 28.9154 47.8771 29.214 47.6542 29.4388L45.3776 31.735L40.3961 26.7108L42.6735 24.4142C42.8956 24.1898 43.1915 24.0662 43.5068 24.0662C43.8219 24.0662 44.1181 24.1899 44.3407 24.4147ZM32.9015 34.5784C32.9423 34.3352 33.0558 34.114 33.2296 33.9387L39.2515 27.8655L44.233 32.8897L38.2115 38.9629C38.0377 39.1382 37.8176 39.2528 37.5743 39.2943L33.5794 39.983C33.5138 39.9942 33.4469 40 33.3803 40C33.0653 40 32.769 39.8759 32.5456 39.6503C32.2764 39.3791 32.1541 38.9904 32.2183 38.6109L32.9015 34.5784Z" fill="#ED3A4E"/>
</svg>
